<?xml version="1.0" standalone="no"?>
<!DOCTYPE svg PUBLIC "-//W3C//DTD SVG 20010904//EN"
 "http://www.w3.org/TR/2001/REC-SVG-20010904/DTD/svg10.dtd">
<svg version="1.0" xmlns="http://www.w3.org/2000/svg"
 width="261.000000pt" height="261.000000pt" viewBox="0 0 261.000000 261.000000"
 preserveAspectRatio="xMidYMid meet">
<metadata>
Created by potrace 1.11, written by Peter Selinger 2001-2013
</metadata>
<g transform="translate(0.000000,261.000000) scale(0.100000,-0.100000)"
fill="#000000" stroke="none">
<path d="M825 2515 c-23 -12 -61 -66 -155 -218 -68 -111 -138 -224 -155 -252
-18 -27 -63 -99 -100 -160 -37 -60 -93 -150 -124 -200 -31 -49 -60 -97 -66
-107 -19 -33 -100 -163 -137 -222 -21 -33 -38 -71 -38 -86 0 -27 33 -80 50
-80 5 0 42 -20 82 -43 40 -24 103 -61 140 -81 58 -31 68 -41 68 -64 5 -337 5
-326 27 -367 28 -54 37 -60 193 -150 74 -43 203 -117 285 -165 83 -48 173 -99
200 -115 28 -15 81 -46 120 -69 62 -37 76 -41 135 -41 l65 0 415 240 c397 230
416 242 445 289 l30 49 0 464 c0 254 4 463 8 463 5 0 47 -22 93 -49 106 -63
116 -66 139 -42 34 38 14 61 -122 140 -71 40 -198 114 -283 164 -85 49 -168
98 -185 107 -16 10 -75 43 -130 75 -55 31 -113 65 -130 75 -96 56 -585 336
-610 350 -16 9 -61 34 -100 57 -85 50 -120 58 -160 38z"/>
</g>
</svg>
